# Simple Pyramid
# 5 vertices, 6 triangles

# Vertex positions
v  0.0  0.5  0.0
v -0.5 -0.5  0.5
v  0.5 -0.5  0.5
v  0.5 -0.5 -0.5
v -0.5 -0.5 -0.5

# Vertex normals (approximated for each face)
vn  0.0  0.447  0.894
vn  0.894  0.447  0.0
vn  0.0  0.447 -0.894
vn -0.894  0.447  0.0
vn  0.0 -1.0  0.0

# Faces (4 triangular sides and a square base made of 2 triangles)
# Front face
f 1//1 2//1 3//1

# Right face
f 1//2 3//2 4//2

# Back face
f 1//3 4//3 5//3

# Left face
f 1//4 5//4 2//4

# Base (bottom)
f 2//5 5//5 4//5
f 2//5 4//5 3//5
